<svg xmlns="http://www.w3.org/2000/svg" width="19" height="25" viewBox="0 0 19 25">
    <g fill="#666" fill-rule="nonzero">
        <path d="M14.286 3H5.714C5.32 3 5 3.352 5 3.786v9.428c0 .434.32.786.714.786h8.572c.394 0 .714-.352.714-.786V3.786c0-.434-.32-.786-.714-.786zm-5 9.429H6.429V9.286h2.857v3.143zm0-4.715H6.429V4.571h2.857v3.143zm4.285 4.715h-2.857V9.286h2.857v3.143zm0-4.715h-2.857V4.571h2.857v3.143z"/>
        <path d="M18.27 23.535h-.732V.732a.732.732 0 0 0-.73-.732H2.192a.732.732 0 0 0-.73.732v22.803H.73A.732.732 0 0 0 .73 25h17.538a.732.732 0 0 0 0-1.465zm-2.193-8.887h-2.192a.732.732 0 0 0 0 1.465h2.192v7.422H2.923V1.465h13.154v13.183z"/>
    </g>
</svg>
