<svg xmlns="http://www.w3.org/2000/svg" width="16" height="16" viewBox="0 0 16 16">
    <g fill="#666" fill-rule="nonzero">
        <path d="M8.47 2.824c-1.556 0-2.823 1.258-2.823 2.804v.038c0 1.546 1.267 2.805 2.824 2.805h1.834a.328.328 0 0 0 .329-.327.328.328 0 0 0-.329-.326H8.471a2.161 2.161 0 0 1-2.167-2.152v-.038c0-1.186.972-2.151 2.167-2.151 1.194 0 2.166.965 2.166 2.151v.602a.388.388 0 0 1-.778 0v-.68c0-.822-.673-1.49-1.5-1.49-.87 0-1.577.702-1.577 1.565 0 .864.707 1.566 1.576 1.566h.47a.328.328 0 0 0 .33-.327.328.328 0 0 0-.33-.326h-.47a.917.917 0 0 1-.919-.913c0-.503.413-.912.92-.912.464 0 .842.375.842.837v.68c0 .573.47 1.039 1.047 1.039s1.046-.466 1.046-1.04v-.6c0-1.547-1.266-2.805-2.823-2.805z"/>
        <path d="M15.873 5.435L8.958.318a1.602 1.602 0 0 0-1.916 0L.127 5.435A.313.313 0 0 0 0 5.686v8.751C0 15.3.7 16 1.563 16h12.874C15.3 16 16 15.299 16 14.437v-8.75c0-.1-.047-.193-.127-.252zM7.413.82a.98.98 0 0 1 1.173 0l6.624 4.902-4.945 4.946-.451-.451c-1-1-2.628-1-3.628 0l-.45.45L.79 5.723 7.414.82zM1.157 15.248a.31.31 0 0 0-.021.023.938.938 0 0 1-.51-.834V6.441l4.668 4.669-4.137 4.138zm.756.127l1.063-1.063h5.119a.313.313 0 0 0 0-.625H3.6l.875-.875h2.312a.313.313 0 0 0 0-.625H5.1l.856-.856.672-.672a1.942 1.942 0 0 1 2.744 0l.672.672 4.044 4.044H1.912zm13.463-.938a.938.938 0 0 1-.51.834.323.323 0 0 0-.02-.023l-4.138-4.138 3.168-3.169v2.595a.313.313 0 1 0 .625 0v-3.22l.875-.875v7.996z"/>
    </g>
</svg>
