<svg xmlns="http://www.w3.org/2000/svg" width="27" height="24" viewBox="0 0 27 24">
    <g fill="#000" fill-rule="evenodd">
        <path d="M9 17h9v-1H9zM9 13h9v-1H9zM9 8h9V7H9z"/>
        <path d="M19.038 22.87h2.247l.159-.131a12.157 12.157 0 0 0 4.415-9.374c0-3.231-1.26-6.279-3.55-8.581A12.345 12.345 0 0 0 13.5 1.129c-3.27 0-6.358 1.264-8.695 3.558-2.392 2.35-3.694 5.471-3.664 8.79a12.168 12.168 0 0 0 4.415 9.261l.16.133H8.01v-2.26h11.028v2.26zM17.897 24v-2.259H9.151V24H5.32l-.155-.12C1.92 21.354.037 17.566 0 13.486a13.105 13.105 0 0 1 1.052-5.289 13.36 13.36 0 0 1 2.949-4.312A13.516 13.516 0 0 1 13.5 0a13.485 13.485 0 0 1 9.622 3.991A13.219 13.219 0 0 1 27 13.365c0 2.086-.472 4.085-1.404 5.94a13.52 13.52 0 0 1-3.762 4.574L21.68 24h-3.782z"/>
    </g>
</svg>
