<svg xmlns="http://www.w3.org/2000/svg" width="19" height="29" viewBox="0 0 19 29">
    <path fill="#666" fill-rule="evenodd" d="M10.176 14.995a.693.693 0 0 0-.651-.724c-.363-.015-.688.303-.698.682-.01.366.273.657.655.674a.658.658 0 0 0 .694-.632zm-.667-7.191a2.17 2.17 0 0 0-2.175 2.165c.006 1.176.968 2.137 2.158 2.158 1.158.02 2.16-.965 2.176-2.139A2.172 2.172 0 0 0 9.51 7.804zm3.514 2.179c-.004 1.93-1.615 3.53-3.543 3.52-1.926-.009-3.506-1.616-3.5-3.56.004-1.94 1.618-3.543 3.54-3.52a3.545 3.545 0 0 1 3.503 3.56zM7.088 23.634l2.414 3.595 2.413-3.595H7.088zm9.52-.059c.038-.033.052-.038.052-.046.31-2.118.62-4.235.918-6.354a.501.501 0 0 0-.12-.348c-.532-.614-1.076-1.217-1.618-1.821-.063-.07-.137-.132-.237-.226-.233 2.099-.421 4.153-.71 6.193-.103.726.091 1.189.639 1.609.387.297.722.662 1.076.993zm-14.257.052c.527-.5.98-.971 1.48-1.388.317-.263.351-.546.305-.918-.167-1.353-.308-2.71-.46-4.065-.09-.811-.182-1.622-.282-2.51-.68.762-1.312 1.463-1.932 2.175-.052.059-.049.186-.037.277.067.514.144 1.026.219 1.54l.707 4.889zm7.826-1.365c1.048 0 2.06.004 3.073-.01.06 0 .161-.14.17-.222.168-1.447.329-2.894.481-4.342.222-2.11.435-4.222.655-6.333a7.55 7.55 0 0 0-.622-3.928c-.778-1.749-1.937-3.224-3.218-4.617-.38-.413-.766-.822-1.122-1.204-.114.045-.14.048-.155.062C7.821 3.194 6.37 4.857 5.343 6.85c-.504.978-.953 2.008-.905 3.12.073 1.69.262 3.374.422 5.06.156 1.651.336 3.301.507 4.952.078.75.16 1.499.243 2.263h3.215v-.382l-.003-3.798c0-.09-.003-.181.002-.272.019-.414.292-.692.678-.692.39 0 .669.271.671.694.009 1.243.004 2.487.004 3.73v.737zm4.357 1.252c-.31.04-.551.101-.79.095-.238-.006-.343.092-.47.284-1.04 1.582-2.09 3.159-3.159 4.722-.354.518-.843.505-1.224.01-1.162-1.514-2.264-3.07-3.176-4.751-.106-.196-.223-.27-.446-.265-.207.005-.414-.078-.623-.088a.467.467 0 0 0-.307.113c-.604.56-1.2 1.13-1.797 1.698-.25.238-.5.474-.889.342-.384-.132-.448-.452-.499-.805C.781 22.256.4 19.645.014 17.035c-.051-.343.045-.611.273-.864a217.885 217.885 0 0 0 2.722-3.064c.115-.132.175-.358.172-.539-.02-.99-.131-1.983-.092-2.97.043-1.092.427-2.117.904-3.096C5.192 4.046 6.948 2.032 8.98.24c.358-.316.678-.32 1.03-.01 1.96 1.73 3.67 3.667 4.875 6.013.652 1.27 1.07 2.613 1.088 4.046.01.742-.087 1.487-.16 2.228-.025.257.025.444.202.638.904.994 1.789 2.006 2.69 3.002.238.263.333.542.281.895-.245 1.65-.48 3.303-.72 4.955-.144.993-.295 1.986-.434 2.98-.044.314-.16.56-.473.68-.323.122-.57-.024-.792-.234-.609-.573-1.214-1.15-1.82-1.724-.09-.084-.181-.165-.213-.195z"/>
</svg>
