<svg xmlns="http://www.w3.org/2000/svg" width="15" height="32" viewBox="0 0 15 32">
    <path fill="#666" fill-rule="nonzero" d="M11.627 21h.746c.346 0 .627.224.627.5s-.28.5-.627.5h-.746c-.346 0-.627-.224-.627-.5s.28-.5.627-.5zM1 8.45a7.165 7.165 0 0 1 .412-2.395c.232-.655.56-1.273.974-1.829V.624c0-.345.266-.624.593-.624h9.051c.328 0 .593.28.593.624v3.615A7.082 7.082 0 0 1 14 8.449c0 2.507-1.303 4.756-3.286 5.947l-.204 1.1a.602.602 0 0 1-.58.504.569.569 0 0 1-.115-.012c-.321-.066-.531-.393-.468-.732l.048-.261a6.206 6.206 0 0 1-.628.165.595.595 0 0 1-.697-.49c-.063-.339.146-.667.467-.734 2.479-.515 4.278-2.823 4.278-5.487a5.819 5.819 0 0 0-.833-3.005c-1.137 1.23-2.785 2.152-4.55 2.525-1.862.392-3.686.144-5.131-.678a5.864 5.864 0 0 0-.116 1.158c0 2.664 1.8 4.972 4.278 5.487.321.067.53.395.467.733a.595.595 0 0 1-.697.491 6.218 6.218 0 0 1-.628-.165l.048.261c.063.339-.147.666-.468.732a.595.595 0 0 1-.695-.492l-.204-1.1C2.303 13.205 1 10.956 1 8.45zM4 4h8V1H4v3zM3 6.101c2.439 1.67 5.908.846 8-1.101H3.586c-.23.344-.426.713-.586 1.101zm12 12.846v7.73c0 .23-.13.439-.336.537l-4.659 2.24.026.373a.597.597 0 0 1-.219.503L7.92 31.868a.586.586 0 0 1-.419.13.586.586 0 0 1-.419-.13L5.188 30.33a.597.597 0 0 1-.219-.504l.026-.371-4.66-2.24A.595.595 0 0 1 0 26.677v-7.731c0-.226.127-.432.327-.532l2.968-1.492a.586.586 0 0 1 .264-.062h1.589l.837-.719A.588.588 0 0 1 6.368 16h2.264c.14 0 .276.05.383.142l.837.719h1.59c.091 0 .181.021.263.062l2.968 1.492c.2.1.327.306.327.532zm-10 .599l-.607-.577a.617.617 0 0 1-.185-.447V18h-.962L1 19.249v6.899L4.481 28 5 19.546zm4 10.31l-.035-.481a.668.668 0 0 1-.001-.022L8.287 20H6.713l-.676 9.346a.612.612 0 0 1-.003.035L6 29.856 7.5 31 9 29.856zM9 17.57L8.388 17H6.612L6 17.57v.606l.676.63.005.005.203.189h1.232L9 18.176v-.606zm4 1.679L10.754 18h-.962v.522a.617.617 0 0 1-.185.447L9 19.546 9.519 28 13 26.148v-6.9z"/>
</svg>
