<svg xmlns="http://www.w3.org/2000/svg" width="21" height="21" viewBox="0 0 21 21">
    <g fill="#666" fill-rule="nonzero">
        <path d="M20.399 7.81c0-.439.17-.852.48-1.162a.41.41 0 0 0 0-.58l-1.521-1.522a.41.41 0 0 0-.58 0c-.31.31-.723.481-1.162.481a1.645 1.645 0 0 1-1.162-2.805.41.41 0 0 0 0-.58L14.932.12a.41.41 0 0 0-.58 0c-.31.31-.723.481-1.162.481-.439 0-.851-.17-1.162-.48a.41.41 0 0 0-.58 0L.12 11.447a.41.41 0 0 0 0 .58c.31.31.481.723.481 1.162 0 .44-.17.852-.48 1.162a.41.41 0 0 0 0 .58l1.521 1.522c.16.16.42.16.58 0 .31-.31.723-.481 1.162-.481.439 0 .852.17 1.162.481.31.31.481.723.481 1.162 0 .439-.17.851-.481 1.162a.41.41 0 0 0 0 .58l1.522 1.522a.409.409 0 0 0 .58 0c.31-.31.723-.481 1.162-.481.439 0 .851.17 1.162.48.16.161.42.161.58 0L20.88 9.553a.41.41 0 0 0 0-.58 1.632 1.632 0 0 1-.481-1.162zM9.238 20.034a2.445 2.445 0 0 0-1.428-.456c-.52 0-1.014.16-1.428.456l-.99-.99c.296-.414.455-.909.455-1.428 0-.658-.256-1.277-.721-1.742a2.447 2.447 0 0 0-1.742-.721c-.52 0-1.014.16-1.428.455l-.99-.99c.296-.414.456-.909.456-1.428 0-.519-.16-1.014-.456-1.428L11.762.966c.414.296.909.456 1.428.456.52 0 1.014-.16 1.428-.456l.99.99a2.467 2.467 0 0 0 .266 3.17 2.447 2.447 0 0 0 1.742.721c.519 0 1.014-.16 1.428-.455l.99.99a2.445 2.445 0 0 0-.456 1.428c0 .519.16 1.014.456 1.428L9.238 20.034z"/>
        <path d="M18.88 8.967L12.033 2.12a.411.411 0 0 0-.582 0l-9.33 9.331a.411.411 0 0 0 0 .582l6.846 6.847a.41.41 0 0 0 .582 0l9.33-9.331a.411.411 0 0 0 0-.582zm-9.622 9.04l-6.265-6.265 8.75-8.749 6.264 6.265-8.749 8.749z"/>
        <path d="M10.854 11.89l-.754-.577-.024-.949a.374.374 0 0 0-.586-.298l-.782.538-.91-.27a.374.374 0 0 0-.464.465l.27.91-.538.781a.374.374 0 0 0 .298.586l.949.024.577.754a.374.374 0 0 0 .65-.103l.316-.895.895-.316a.374.374 0 0 0 .103-.65zm-1.416.32a.374.374 0 0 0-.228.228l-.146.413-.266-.347a.374.374 0 0 0-.287-.147l-.438-.01.248-.362a.374.374 0 0 0 .05-.318l-.124-.42.42.125a.374.374 0 0 0 .318-.05l.361-.25.011.439a.374.374 0 0 0 .147.287l.347.266-.413.146zM13.874 7.126a.432.432 0 0 0-.61 0l-2.138 2.137a.432.432 0 1 0 .61.61l2.138-2.136a.432.432 0 0 0 0-.61zM11.88 6.12a.408.408 0 0 0-.577 0L10.12 7.303a.408.408 0 1 0 .578.577l1.183-1.183a.408.408 0 0 0 0-.577zM12.855 10.145a.496.496 0 0 0-.701 0l-.009.009a.496.496 0 0 0 .701.7l.009-.008a.496.496 0 0 0 0-.7zM14.88 8.12a.408.408 0 0 0-.577 0L13.12 9.303a.408.408 0 1 0 .577.577l1.183-1.183a.408.408 0 0 0 0-.578z"/>
    </g>
</svg>
