<svg xmlns="http://www.w3.org/2000/svg" width="22" height="20" viewBox="0 0 22 20">
    <path fill="#666" fill-rule="nonzero" d="M21.57 19.114h-2.202l-.02-9.494a.437.437 0 0 0-.43-.442c-.237 0-.43.2-.429.444l.02 9.492H15.84l-.02-10.372a.455.455 0 0 0-.007-.078v-.502c0-.439-.064-.87-.19-1.284.454-.26.966-.396 1.497-.397h.007c.812 0 1.575.315 2.15.887.573.57.889 1.328.89 2.135l.007 1.98c.001.244.193.441.43.441h.002c.237 0 .429-.2.428-.444l-.007-1.98a3.895 3.895 0 0 0-1.153-2.77 3.886 3.886 0 0 0-1.393-.893c.373-.397.577-.918.576-1.47-.003-1.163-.92-2.107-2.046-2.107h-.005c-1.128.003-2.044.951-2.042 2.115a2.13 2.13 0 0 0 .603 1.491l.039.038c-.111.047-.22.1-.326.158a4.345 4.345 0 0 0-2.393-2.038 2.362 2.362 0 0 0 .704-1.69C13.592 1.047 12.577 0 11.33 0S9.066 1.047 9.066 2.334c0 .699.3 1.326.772 1.754A4.35 4.35 0 0 0 7.622 6.05c-.15-.08-.305-.15-.464-.21.359-.38.58-.898.58-1.47 0-1.163-.918-2.11-2.046-2.11-1.129 0-2.047.947-2.047 2.11 0 .602.246 1.146.64 1.53a3.921 3.921 0 0 0-2.389 3.61v1.979c0 .245.192.443.43.443.237 0 .43-.198.43-.443v-1.98a3.038 3.038 0 0 1 3.04-3.028c.524 0 1.03.132 1.481.384-.13.418-.195.853-.195 1.297v10.952H4.491V9.625a.437.437 0 0 0-.43-.443.437.437 0 0 0-.43.443v9.489H.43a.437.437 0 0 0-.43.443c0 .245.192.443.43.443H21.57c.237 0 .429-.198.429-.443a.437.437 0 0 0-.43-.443zM17.01 3.146h.002c.654 0 1.186.548 1.187 1.222.001.327-.122.635-.345.866-.224.232-.522.36-.839.36h-.003c-.316 0-.613-.126-.837-.356a1.235 1.235 0 0 1-.35-.865c0-.675.53-1.225 1.185-1.227zM5.692 5.595c-.655 0-1.187-.55-1.187-1.225s.532-1.224 1.187-1.224c.654 0 1.187.55 1.187 1.224 0 .675-.533 1.225-1.187 1.225zM11.329.886c.774 0 1.404.65 1.404 1.448 0 .798-.63 1.448-1.404 1.448-.774 0-1.403-.65-1.403-1.448 0-.798.63-1.448 1.403-1.448zM9.05 19.114H7.941v-5.458c.315.238.696.391 1.11.426v5.032zM13.48 7.85a.437.437 0 0 0-.43.443v10.82h-1.236v-5.35a.437.437 0 0 0-.43-.444.437.437 0 0 0-.429.443v5.352H9.91V8.294a.437.437 0 0 0-.43-.444.437.437 0 0 0-.43.443v4.898a1.282 1.282 0 0 1-1.109-1.263V8.162c0-.453.087-.895.256-1.312l.001-.003a3.494 3.494 0 0 1 3.25-2.179 3.492 3.492 0 0 1 3.507 3.494v3.766c0 .62-.45 1.14-1.045 1.252V8.293a.437.437 0 0 0-.43-.443zm.43 11.264v-5.038c.396-.046.76-.2 1.061-.433l.01 5.47H13.91z"/>
</svg>
